<mxfile host="app.diagrams.net" agent="Mozilla/5.0 (X11; Ubuntu; Linux x86_64; rv:141.0) Gecko/20100101 Firefox/141.0" version="28.0.7">
  <diagram name="Page-1" id="0XKCgHkzJOEGEVieS6Cd">
    <mxGraphModel dx="815" dy="456" grid="1" gridSize="5" guides="1" tooltips="1" connect="1" arrows="1" fold="1" page="1" pageScale="1" pageWidth="850" pageHeight="1100" math="0" shadow="0">
      <root>
        <mxCell id="0" />
        <mxCell id="1" parent="0" />
        <mxCell id="itIOLJ1uPxd5ZDORzVZa-12" style="edgeStyle=orthogonalEdgeStyle;rounded=0;orthogonalLoop=1;jettySize=auto;html=1;exitX=1;exitY=0.5;exitDx=0;exitDy=0;entryX=0;entryY=0;entryDx=0;entryDy=0;" edge="1" parent="1" source="itIOLJ1uPxd5ZDORzVZa-1" target="itIOLJ1uPxd5ZDORzVZa-4">
          <mxGeometry relative="1" as="geometry" />
        </mxCell>
        <mxCell id="itIOLJ1uPxd5ZDORzVZa-1" value="+" style="ellipse;whiteSpace=wrap;html=1;aspect=fixed;" vertex="1" parent="1">
          <mxGeometry x="245" y="165" width="30" height="30" as="geometry" />
        </mxCell>
        <mxCell id="itIOLJ1uPxd5ZDORzVZa-13" style="edgeStyle=orthogonalEdgeStyle;rounded=0;orthogonalLoop=1;jettySize=auto;html=1;exitX=1;exitY=0.5;exitDx=0;exitDy=0;entryX=0;entryY=1;entryDx=0;entryDy=0;" edge="1" parent="1" source="itIOLJ1uPxd5ZDORzVZa-2" target="itIOLJ1uPxd5ZDORzVZa-4">
          <mxGeometry relative="1" as="geometry" />
        </mxCell>
        <mxCell id="itIOLJ1uPxd5ZDORzVZa-2" value="+" style="ellipse;whiteSpace=wrap;html=1;aspect=fixed;" vertex="1" parent="1">
          <mxGeometry x="245" y="205" width="30" height="30" as="geometry" />
        </mxCell>
        <mxCell id="itIOLJ1uPxd5ZDORzVZa-4" value="+" style="ellipse;whiteSpace=wrap;html=1;aspect=fixed;" vertex="1" parent="1">
          <mxGeometry x="290" y="185" width="30" height="30" as="geometry" />
        </mxCell>
        <mxCell id="itIOLJ1uPxd5ZDORzVZa-10" style="edgeStyle=orthogonalEdgeStyle;rounded=0;orthogonalLoop=1;jettySize=auto;html=1;exitX=1;exitY=0.5;exitDx=0;exitDy=0;entryX=0;entryY=0;entryDx=0;entryDy=0;" edge="1" parent="1" source="itIOLJ1uPxd5ZDORzVZa-5" target="itIOLJ1uPxd5ZDORzVZa-7">
          <mxGeometry relative="1" as="geometry" />
        </mxCell>
        <mxCell id="itIOLJ1uPxd5ZDORzVZa-5" value="+" style="ellipse;whiteSpace=wrap;html=1;aspect=fixed;" vertex="1" parent="1">
          <mxGeometry x="245" y="320" width="30" height="30" as="geometry" />
        </mxCell>
        <mxCell id="itIOLJ1uPxd5ZDORzVZa-11" style="edgeStyle=orthogonalEdgeStyle;rounded=0;orthogonalLoop=1;jettySize=auto;html=1;exitX=1;exitY=0.5;exitDx=0;exitDy=0;entryX=0;entryY=1;entryDx=0;entryDy=0;" edge="1" parent="1" source="itIOLJ1uPxd5ZDORzVZa-6" target="itIOLJ1uPxd5ZDORzVZa-7">
          <mxGeometry relative="1" as="geometry" />
        </mxCell>
        <mxCell id="itIOLJ1uPxd5ZDORzVZa-6" value="+" style="ellipse;whiteSpace=wrap;html=1;aspect=fixed;" vertex="1" parent="1">
          <mxGeometry x="245" y="360" width="30" height="30" as="geometry" />
        </mxCell>
        <mxCell id="itIOLJ1uPxd5ZDORzVZa-7" value="+" style="ellipse;whiteSpace=wrap;html=1;aspect=fixed;" vertex="1" parent="1">
          <mxGeometry x="290" y="340" width="30" height="30" as="geometry" />
        </mxCell>
        <mxCell id="itIOLJ1uPxd5ZDORzVZa-18" style="edgeStyle=orthogonalEdgeStyle;rounded=0;orthogonalLoop=1;jettySize=auto;html=1;exitX=0;exitY=1;exitDx=0;exitDy=0;endArrow=none;endFill=0;startArrow=classic;startFill=1;" edge="1" parent="1" source="itIOLJ1uPxd5ZDORzVZa-8">
          <mxGeometry relative="1" as="geometry">
            <mxPoint x="355" y="300" as="targetPoint" />
          </mxGeometry>
        </mxCell>
        <mxCell id="itIOLJ1uPxd5ZDORzVZa-19" style="edgeStyle=orthogonalEdgeStyle;rounded=0;orthogonalLoop=1;jettySize=auto;html=1;exitX=0;exitY=0;exitDx=0;exitDy=0;startArrow=classic;startFill=1;endArrow=none;endFill=0;" edge="1" parent="1" source="itIOLJ1uPxd5ZDORzVZa-8">
          <mxGeometry relative="1" as="geometry">
            <mxPoint x="355" y="260" as="targetPoint" />
          </mxGeometry>
        </mxCell>
        <mxCell id="itIOLJ1uPxd5ZDORzVZa-20" style="edgeStyle=orthogonalEdgeStyle;rounded=0;orthogonalLoop=1;jettySize=auto;html=1;exitX=1;exitY=0.5;exitDx=0;exitDy=0;" edge="1" parent="1" source="itIOLJ1uPxd5ZDORzVZa-8">
          <mxGeometry relative="1" as="geometry">
            <mxPoint x="440" y="280" as="targetPoint" />
          </mxGeometry>
        </mxCell>
        <mxCell id="itIOLJ1uPxd5ZDORzVZa-8" value="+" style="ellipse;whiteSpace=wrap;html=1;aspect=fixed;" vertex="1" parent="1">
          <mxGeometry x="380" y="265" width="30" height="30" as="geometry" />
        </mxCell>
        <mxCell id="itIOLJ1uPxd5ZDORzVZa-14" value="" style="endArrow=none;html=1;rounded=0;" edge="1" parent="1">
          <mxGeometry width="50" height="50" relative="1" as="geometry">
            <mxPoint x="320" y="200" as="sourcePoint" />
            <mxPoint x="355" y="200" as="targetPoint" />
          </mxGeometry>
        </mxCell>
        <mxCell id="itIOLJ1uPxd5ZDORzVZa-15" value="" style="endArrow=none;dashed=1;html=1;dashPattern=1 3;strokeWidth=2;rounded=0;" edge="1" parent="1">
          <mxGeometry width="50" height="50" relative="1" as="geometry">
            <mxPoint x="355" y="260" as="sourcePoint" />
            <mxPoint x="355" y="200" as="targetPoint" />
          </mxGeometry>
        </mxCell>
        <mxCell id="itIOLJ1uPxd5ZDORzVZa-16" value="" style="endArrow=none;dashed=1;html=1;dashPattern=1 3;strokeWidth=2;rounded=0;" edge="1" parent="1">
          <mxGeometry width="50" height="50" relative="1" as="geometry">
            <mxPoint x="355" y="355" as="sourcePoint" />
            <mxPoint x="355" y="295" as="targetPoint" />
          </mxGeometry>
        </mxCell>
        <mxCell id="itIOLJ1uPxd5ZDORzVZa-17" value="" style="endArrow=none;html=1;rounded=0;" edge="1" parent="1">
          <mxGeometry width="50" height="50" relative="1" as="geometry">
            <mxPoint x="320" y="354.83" as="sourcePoint" />
            <mxPoint x="355" y="355" as="targetPoint" />
          </mxGeometry>
        </mxCell>
        <mxCell id="itIOLJ1uPxd5ZDORzVZa-25" style="edgeStyle=orthogonalEdgeStyle;rounded=0;orthogonalLoop=1;jettySize=auto;html=1;exitX=1;exitY=0.5;exitDx=0;exitDy=0;entryX=0.5;entryY=0;entryDx=0;entryDy=0;" edge="1" parent="1" source="itIOLJ1uPxd5ZDORzVZa-22" target="itIOLJ1uPxd5ZDORzVZa-23">
          <mxGeometry relative="1" as="geometry">
            <Array as="points">
              <mxPoint x="575" y="280" />
              <mxPoint x="575" y="245" />
              <mxPoint x="455" y="245" />
            </Array>
          </mxGeometry>
        </mxCell>
        <mxCell id="itIOLJ1uPxd5ZDORzVZa-43" style="edgeStyle=orthogonalEdgeStyle;rounded=0;orthogonalLoop=1;jettySize=auto;html=1;exitX=1;exitY=0.5;exitDx=0;exitDy=0;entryX=0.75;entryY=1;entryDx=0;entryDy=0;" edge="1" parent="1" source="itIOLJ1uPxd5ZDORzVZa-22" target="itIOLJ1uPxd5ZDORzVZa-36">
          <mxGeometry relative="1" as="geometry" />
        </mxCell>
        <mxCell id="itIOLJ1uPxd5ZDORzVZa-22" value="V_mem" style="rounded=0;whiteSpace=wrap;html=1;fillColor=#CCCCCC;" vertex="1" parent="1">
          <mxGeometry x="500" y="267.5" width="55" height="25" as="geometry" />
        </mxCell>
        <mxCell id="itIOLJ1uPxd5ZDORzVZa-24" style="edgeStyle=orthogonalEdgeStyle;rounded=0;orthogonalLoop=1;jettySize=auto;html=1;exitX=1;exitY=0.5;exitDx=0;exitDy=0;entryX=0;entryY=0.5;entryDx=0;entryDy=0;" edge="1" parent="1" source="itIOLJ1uPxd5ZDORzVZa-23" target="itIOLJ1uPxd5ZDORzVZa-22">
          <mxGeometry relative="1" as="geometry" />
        </mxCell>
        <mxCell id="itIOLJ1uPxd5ZDORzVZa-23" value="+" style="ellipse;whiteSpace=wrap;html=1;aspect=fixed;" vertex="1" parent="1">
          <mxGeometry x="440" y="265" width="30" height="30" as="geometry" />
        </mxCell>
        <mxCell id="itIOLJ1uPxd5ZDORzVZa-26" value="" style="rounded=0;whiteSpace=wrap;html=1;fillColor=none;dashed=1;" vertex="1" parent="1">
          <mxGeometry x="220" y="155" width="200" height="245" as="geometry" />
        </mxCell>
        <mxCell id="itIOLJ1uPxd5ZDORzVZa-27" value="Tree adder" style="text;html=1;align=center;verticalAlign=middle;whiteSpace=wrap;rounded=0;" vertex="1" parent="1">
          <mxGeometry x="297.5" y="130" width="60" height="30" as="geometry" />
        </mxCell>
        <mxCell id="itIOLJ1uPxd5ZDORzVZa-28" value="" style="endArrow=classic;html=1;rounded=0;" edge="1" parent="1">
          <mxGeometry width="50" height="50" relative="1" as="geometry">
            <mxPoint x="215" y="180" as="sourcePoint" />
            <mxPoint x="245" y="180" as="targetPoint" />
          </mxGeometry>
        </mxCell>
        <mxCell id="itIOLJ1uPxd5ZDORzVZa-29" value="spike[0]" style="text;html=1;align=center;verticalAlign=middle;whiteSpace=wrap;rounded=0;" vertex="1" parent="1">
          <mxGeometry x="170" y="173.75" width="45" height="12.5" as="geometry" />
        </mxCell>
        <mxCell id="itIOLJ1uPxd5ZDORzVZa-30" value="" style="endArrow=classic;html=1;rounded=0;" edge="1" parent="1">
          <mxGeometry width="50" height="50" relative="1" as="geometry">
            <mxPoint x="215" y="220" as="sourcePoint" />
            <mxPoint x="245" y="220" as="targetPoint" />
          </mxGeometry>
        </mxCell>
        <mxCell id="itIOLJ1uPxd5ZDORzVZa-32" value="" style="endArrow=classic;html=1;rounded=0;" edge="1" parent="1">
          <mxGeometry width="50" height="50" relative="1" as="geometry">
            <mxPoint x="215" y="335" as="sourcePoint" />
            <mxPoint x="245" y="335" as="targetPoint" />
          </mxGeometry>
        </mxCell>
        <mxCell id="itIOLJ1uPxd5ZDORzVZa-34" value="" style="endArrow=classic;html=1;rounded=0;" edge="1" parent="1">
          <mxGeometry width="50" height="50" relative="1" as="geometry">
            <mxPoint x="215" y="375" as="sourcePoint" />
            <mxPoint x="245" y="375" as="targetPoint" />
          </mxGeometry>
        </mxCell>
        <mxCell id="itIOLJ1uPxd5ZDORzVZa-46" style="edgeStyle=orthogonalEdgeStyle;rounded=0;orthogonalLoop=1;jettySize=auto;html=1;" edge="1" parent="1" source="itIOLJ1uPxd5ZDORzVZa-36">
          <mxGeometry relative="1" as="geometry">
            <mxPoint x="660" y="259" as="targetPoint" />
          </mxGeometry>
        </mxCell>
        <mxCell id="itIOLJ1uPxd5ZDORzVZa-47" value="spike" style="edgeLabel;html=1;align=center;verticalAlign=middle;resizable=0;points=[];" vertex="1" connectable="0" parent="itIOLJ1uPxd5ZDORzVZa-46">
          <mxGeometry x="0.7321" y="3" relative="1" as="geometry">
            <mxPoint x="-2" y="14" as="offset" />
          </mxGeometry>
        </mxCell>
        <mxCell id="itIOLJ1uPxd5ZDORzVZa-36" value="" style="shape=trapezoid;perimeter=trapezoidPerimeter;whiteSpace=wrap;html=1;fixedSize=1;rotation=90;" vertex="1" parent="1">
          <mxGeometry x="575" y="250" width="77.5" height="17.5" as="geometry" />
        </mxCell>
        <mxCell id="itIOLJ1uPxd5ZDORzVZa-37" value="&amp;gt;=" style="text;html=1;align=center;verticalAlign=middle;whiteSpace=wrap;rounded=0;" vertex="1" parent="1">
          <mxGeometry x="605" y="252.5" width="17.5" height="12.5" as="geometry" />
        </mxCell>
        <mxCell id="itIOLJ1uPxd5ZDORzVZa-45" style="edgeStyle=orthogonalEdgeStyle;rounded=0;orthogonalLoop=1;jettySize=auto;html=1;exitX=1;exitY=0.5;exitDx=0;exitDy=0;entryX=0.25;entryY=1;entryDx=0;entryDy=0;" edge="1" parent="1" source="itIOLJ1uPxd5ZDORzVZa-44" target="itIOLJ1uPxd5ZDORzVZa-36">
          <mxGeometry relative="1" as="geometry" />
        </mxCell>
        <mxCell id="itIOLJ1uPxd5ZDORzVZa-44" value="V_threshold" style="rounded=0;whiteSpace=wrap;html=1;fillColor=#CCCCCC;" vertex="1" parent="1">
          <mxGeometry x="480" y="210" width="75" height="25" as="geometry" />
        </mxCell>
        <mxCell id="itIOLJ1uPxd5ZDORzVZa-48" value="spike[1]" style="text;html=1;align=center;verticalAlign=middle;whiteSpace=wrap;rounded=0;" vertex="1" parent="1">
          <mxGeometry x="170" y="213.75" width="45" height="12.5" as="geometry" />
        </mxCell>
        <mxCell id="itIOLJ1uPxd5ZDORzVZa-49" value="spike[14]" style="text;html=1;align=center;verticalAlign=middle;whiteSpace=wrap;rounded=0;" vertex="1" parent="1">
          <mxGeometry x="165" y="328.75" width="45" height="12.5" as="geometry" />
        </mxCell>
        <mxCell id="itIOLJ1uPxd5ZDORzVZa-50" value="spike[15]" style="text;html=1;align=center;verticalAlign=middle;whiteSpace=wrap;rounded=0;" vertex="1" parent="1">
          <mxGeometry x="165" y="368.75" width="45" height="12.5" as="geometry" />
        </mxCell>
        <mxCell id="itIOLJ1uPxd5ZDORzVZa-52" style="edgeStyle=orthogonalEdgeStyle;rounded=0;orthogonalLoop=1;jettySize=auto;html=1;exitX=0.75;exitY=0;exitDx=0;exitDy=0;entryX=1;entryY=0.5;entryDx=0;entryDy=0;" edge="1" parent="1" source="itIOLJ1uPxd5ZDORzVZa-51" target="itIOLJ1uPxd5ZDORzVZa-36">
          <mxGeometry relative="1" as="geometry" />
        </mxCell>
        <mxCell id="itIOLJ1uPxd5ZDORzVZa-53" value="calc_flag" style="edgeLabel;html=1;align=center;verticalAlign=middle;resizable=0;points=[];" vertex="1" connectable="0" parent="itIOLJ1uPxd5ZDORzVZa-52">
          <mxGeometry x="0.4868" y="-3" relative="1" as="geometry">
            <mxPoint x="-37" y="8" as="offset" />
          </mxGeometry>
        </mxCell>
        <mxCell id="itIOLJ1uPxd5ZDORzVZa-54" style="edgeStyle=orthogonalEdgeStyle;rounded=0;orthogonalLoop=1;jettySize=auto;html=1;exitX=0.5;exitY=0;exitDx=0;exitDy=0;entryX=0.5;entryY=1;entryDx=0;entryDy=0;" edge="1" parent="1" source="itIOLJ1uPxd5ZDORzVZa-51" target="itIOLJ1uPxd5ZDORzVZa-22">
          <mxGeometry relative="1" as="geometry">
            <Array as="points">
              <mxPoint x="475" y="420" />
              <mxPoint x="475" y="356" />
              <mxPoint x="528" y="356" />
            </Array>
          </mxGeometry>
        </mxCell>
        <mxCell id="itIOLJ1uPxd5ZDORzVZa-55" value="reset" style="edgeLabel;html=1;align=center;verticalAlign=middle;resizable=0;points=[];" vertex="1" connectable="0" parent="itIOLJ1uPxd5ZDORzVZa-54">
          <mxGeometry x="0.1593" y="1" relative="1" as="geometry">
            <mxPoint x="-1" y="-10" as="offset" />
          </mxGeometry>
        </mxCell>
        <mxCell id="itIOLJ1uPxd5ZDORzVZa-51" value="Pulse Generator" style="rounded=0;whiteSpace=wrap;html=1;" vertex="1" parent="1">
          <mxGeometry x="220" y="420" width="420" height="20" as="geometry" />
        </mxCell>
        <mxCell id="itIOLJ1uPxd5ZDORzVZa-56" value="" style="rounded=0;whiteSpace=wrap;html=1;fillColor=none;dashed=1;dashPattern=8 8;" vertex="1" parent="1">
          <mxGeometry x="220" y="120" width="420" height="280" as="geometry" />
        </mxCell>
        <mxCell id="itIOLJ1uPxd5ZDORzVZa-57" value="Neuron Model" style="text;html=1;align=center;verticalAlign=middle;whiteSpace=wrap;rounded=0;" vertex="1" parent="1">
          <mxGeometry x="382.5" y="95" width="95" height="30" as="geometry" />
        </mxCell>
      </root>
    </mxGraphModel>
  </diagram>
</mxfile>
